<svg height="512pt" viewBox="0 0 512.001 512" width="512pt" xmlns="http://www.w3.org/2000/svg"><path d="m55.261719 28.761719c-12.125 0-21.988281 9.867187-21.988281 21.992187s9.863281 21.988282 21.988281 21.988282 21.992187-9.863282 21.992187-21.988282-9.867187-21.992187-21.992187-21.992187zm0 28.996093c-3.859375 0-7.003907-3.144531-7.003907-7.003906 0-3.863281 3.144532-7.003906 7.003907-7.003906 3.863281 0 7.003906 3.140625 7.003906 7.003906 0 3.859375-3.140625 7.003906-7.003906 7.003906zm0 0"/><path d="m111.25 28.761719c-12.125 0-21.992188 9.867187-21.992188 21.992187s9.867188 21.988282 21.992188 21.988282 21.988281-9.863282 21.988281-21.988282-9.863281-21.992187-21.988281-21.992187zm0 28.996093c-3.863281 0-7.003906-3.144531-7.003906-7.003906 0-3.863281 3.140625-7.003906 7.003906-7.003906 3.859375 0 7.003906 3.140625 7.003906 7.003906 0 3.859375-3.144531 7.003906-7.003906 7.003906zm0 0"/><path d="m167.234375 28.761719c-12.125 0-21.988281 9.867187-21.988281 21.992187s9.863281 21.988282 21.988281 21.988282 21.992187-9.863282 21.992187-21.988282-9.867187-21.992187-21.992187-21.992187zm0 28.996093c-3.859375 0-7.003906-3.144531-7.003906-7.003906 0-3.863281 3.144531-7.003906 7.003906-7.003906 3.863281 0 7.003906 3.140625 7.003906 7.003906 0 3.859375-3.140625 7.003906-7.003906 7.003906zm0 0"/><path d="m479.023438 0h-446.042969c-18.183594 0-32.980469 14.796875-32.980469 32.980469v362.566406c0 16.480469 12.152344 30.175781 27.964844 32.601563 1.636718.25 3.3125.378906 5.015625.378906h145.804687v26.875h-22.625c-15.089844 0-27.371094 12.277344-27.371094 27.371094v16.1875c0 6.886718 5.601563 12.488281 12.488282 12.488281h126.214844c4.140624 0 7.492187-3.355469 7.492187-7.492188 0-4.140625-3.351563-7.496093-7.492187-7.496093h-123.714844v-13.6875c0-6.828126 5.554687-12.386719 12.382812-12.386719h199.113282c6.828124 0 12.382812 5.554687 12.382812 12.386719v13.6875h-53.707031c-4.136719 0-7.492188 3.355468-7.492188 7.496093 0 4.136719 3.355469 7.492188 7.492188 7.492188h56.203125c6.886718 0 12.492187-5.601563 12.492187-12.488281v-16.1875c0-15.09375-12.28125-27.371094-27.371093-27.371094h-22.625v-26.875h145.804687c1.703125 0 3.378906-.128906 5.015625-.378906 15.8125-2.425782 27.964844-16.121094 27.964844-32.601563v-35.914063l.566406-326.652343c0-18.1875-14.792969-32.980469-32.976562-32.980469zm-161.363282 455.402344h-123.890625v-26.875h123.890625zm178.785156-59.855469c0 9.300781-7.09375 16.976563-16.15625 17.902344-.605468.058593-1.214843.089843-1.835937.089843h-445.472656c-.621094 0-1.234375-.03125-1.835938-.089843-9.0625-.925781-16.15625-8.601563-16.15625-17.902344v-28.421875h481.457031zm0-43.410156h-481.457031v-250.207031h481.457031zm0-265.195313h-480.90625v-53.960937c0-9.921875 8.070313-17.992188 17.992188-17.992188h444.921875c9.921875 0 17.992187 8.074219 17.992187 17.992188zm0 0"/><path d="m40.910156 136.789062h19.933594c4.136719 0 7.492188-3.355468 7.492188-7.492187s-3.355469-7.492187-7.492188-7.492187h-19.933594c-4.136718 0-7.492187 3.355468-7.492187 7.492187s3.355469 7.492187 7.492187 7.492187zm0 0"/><path d="m86.160156 136.789062h121.597656c4.140626 0 7.496094-3.355468 7.496094-7.492187s-3.355468-7.492187-7.496094-7.492187h-121.597656c-4.140625 0-7.496094 3.355468-7.496094 7.492187s3.355469 7.492187 7.496094 7.492187zm0 0"/><path d="m199.070312 169.761719c4.136719 0 7.492188-3.355469 7.492188-7.496094 0-4.136719-3.355469-7.492187-7.492188-7.492187h-49.257812c-4.140625 0-7.492188 3.355468-7.492188 7.492187 0 4.140625 3.351563 7.496094 7.492188 7.496094zm0 0"/><path d="m133.273438 162.265625c0-4.136719-3.355469-7.492187-7.492188-7.492187h-16.933594c-4.136718 0-7.492187 3.355468-7.492187 7.492187 0 4.140625 3.355469 7.496094 7.492187 7.496094h16.933594c4.136719 0 7.492188-3.355469 7.492188-7.496094zm0 0"/><path d="m40.910156 169.761719h41.480469c4.140625 0 7.496094-3.355469 7.496094-7.496094 0-4.136719-3.355469-7.492187-7.496094-7.492187h-41.480469c-4.136718 0-7.492187 3.355468-7.492187 7.492187 0 4.140625 3.355469 7.496094 7.492187 7.496094zm0 0"/><path d="m213.0625 324.621094h-10.21875v-64.765625c0-7.257813-5.90625-13.164063-13.167969-13.164063h-53.175781c-7.257812 0-13.167969 5.90625-13.167969 13.164063v72.257812c0 4.140625 3.355469 7.492188 7.496094 7.492188h333.699219c4.136718 0 7.492187-3.351563 7.492187-7.492188v-112.21875c0-7.261719-5.90625-13.167969-13.167969-13.167969h-53.175781c-7.261719 0-13.164062 5.90625-13.164062 13.167969v104.726563h-10.214844v-118.847656c0-4.140626-3.355469-7.496094-7.496094-7.496094-4.136719 0-7.492187 3.355468-7.492187 7.496094v118.847656h-49.535156v-188.828125h49.535156v24.019531c0 4.140625 3.355468 7.492188 7.492187 7.492188 4.140625 0 7.496094-3.351563 7.496094-7.492188v-25.84375c0-7.257812-5.90625-13.164062-13.167969-13.164062h-53.175781c-7.261719 0-13.167969 5.90625-13.167969 13.164062v190.652344h-10.21875v-131.703125c0-7.261719-5.902344-13.167969-13.164062-13.167969h-53.175782c-7.261718 0-13.167968 5.90625-13.167968 13.167969v131.703125zm-25.203125 0h-49.539063v-62.945313h49.539063zm219.640625-102.90625h49.535156v102.90625h-49.535156zm-179.453125-26.976563h49.535156v129.882813h-49.535156zm0 0"/></svg>