<svg height="496pt" viewBox="-32 0 496 496.002" width="496pt" xmlns="http://www.w3.org/2000/svg"><path d="m176 280.003906v-16c0-30.875-25.117188-56-56-56h-24v16h24c22.058594 0 40 17.941406 40 40v16zm0 0"/><path d="m176 376.003906v-80h-16v80c0 4.414063-3.589844 8-8 8h-32v16h32c13.234375 0 24-10.769531 24-24zm0 0"/><path d="m96 304.003906h16v72h-16zm0 0"/><path d="m96 272.003906h16v16h-16zm0 0"/><path d="m144 416.003906h-24c-22.054688 0-40-17.945312-40-40v-24h-16v24c0 30.871094 25.121094 56 56 56h24zm0 0"/><path d="m144 368.003906v-104c0-13.234375-10.765625-24-24-24h-32c-13.230469 0-24 10.765625-24 24v72h16v-72c0-4.417968 3.59375-8 8-8h32c4.410156 0 8 3.582032 8 8v104zm0 0"/><path d="m208 376.003906v-112c0-41.691406-29.605469-77.953125-70.40625-86.242187l-3.183594 15.6875c33.367188 6.769531 57.589844 36.441406 57.589844 70.554687v112c0 10.015625-2.015625 19.703125-5.992188 28.796875l14.664063 6.410157c4.863281-11.128907 7.328125-22.976563 7.328125-35.207032zm0 0"/><path d="m32 264.003906v64h16v-64c0-39.707031 32.304688-72 72-72v-16c-48.519531 0-88 39.476563-88 88zm0 0"/><path d="m32 344.003906h16v16h-16zm0 0"/><path d="m120 464.003906c5.90625 0 11.824219-.59375 17.59375-1.761718l-3.175781-15.6875c-4.730469.960937-9.578125 1.449218-14.417969 1.449218-39.695312 0-72-32.296875-72-72h-16c0 48.519532 39.480469 88 88 88zm0 0"/><path d="m190.402344 428.808594-12.800782-9.605469c-7.480468 9.957031-17.441406 17.847656-28.808593 22.824219l6.40625 14.65625c13.898437-6.082032 26.074219-15.722656 35.203125-27.875zm0 0"/><path d="m16 376.003906v-112c0-21.402344 6.449219-41.945312 18.640625-59.425781l-13.128906-9.160156c-14.070313 20.183593-21.511719 43.894531-21.511719 68.585937v112c0 21.09375 5.554688 41.839844 16.058594 60.007813l13.847656-8.019531c-9.097656-15.726563-13.90625-33.710938-13.90625-51.988282zm0 0"/><path d="m38.28125 440.339844-12.558594 9.902344c7.335938 9.304687 15.980469 17.464843 25.703125 24.238281l9.152344-13.125c-8.433594-5.867188-15.929687-12.945313-22.296875-21.015625zm0 0"/><path d="m60.578125 178.640625-9.152344-13.125c-5.449219 3.796875-10.632812 8.09375-15.410156 12.773437l11.195313 11.425782c4.140624-4.058594 8.636718-7.785156 13.367187-11.074219zm0 0"/><path d="m424 40.003906h-2.984375c-32.054687 0-62.183594-12.488281-84.855469-35.152344l-2.503906-2.503906c-3.128906-3.128906-8.183594-3.128906-11.3125 0l-2.503906 2.503906c-22.671875 22.664063-52.808594 35.152344-84.855469 35.152344h-2.984375c-4.414062 0-8 3.574219-8 8v109.183594c0 29.496094 14.648438 56.863281 39.183594 73.214844l60.378906 40.246094c1.34375.90625 2.894531 1.355468 4.4375 1.355468 1.546875 0 3.097656-.449218 4.441406-1.347656l60.375-40.246094c24.535156-16.351562 39.183594-43.726562 39.183594-73.222656v-109.183594c0-4.425781-3.582031-8-8-8zm-8 117.183594c0 24.132812-11.984375 46.519531-32.0625 59.902344l-55.9375 37.296875-55.933594-37.289063c-20.082031-13.382812-32.066406-35.777344-32.066406-59.910156v-101.28125c32.992188-1.183594 63.921875-14.082031 88-36.6875 24.082031 22.605469 55.007812 35.503906 88 36.6875zm0 0"/><path d="m256 64.003906h16v16h-16zm0 0"/><path d="m384 64.003906h16v16h-16zm0 0"/><path d="m288 120.003906v24h-8c-4.414062 0-8 3.574219-8 8v48c0 4.421875 3.585938 8 8 8h96c4.417969 0 8-3.578125 8-8v-48c0-4.425781-3.582031-8-8-8h-8v-24c0-22.058594-17.941406-40-40-40-22.054688 0-40 17.941406-40 40zm80 72h-80v-32h80zm-16-72v24h-48v-24c0-13.234375 10.769531-24 24-24 13.234375 0 24 10.765625 24 24zm0 0"/><path d="m80 110.867188v40.007812c-3.863281 1.367188-7.6875 2.894531-11.429688 4.679688l6.863282 14.457031c13.976562-6.640625 28.96875-10.007813 44.566406-10.007813 57.34375 0 104 46.652344 104 104v40h16v-40c0-52.128906-33.472656-96.472656-80-113v-88.136718c13.761719-3.578126 24-15.992188 24-30.863282 0-17.648437-14.351562-31.99999975-32-31.99999975s-32 14.35156275-32 31.99999975c0 14.871094 10.242188 27.285156 24 30.863282v83.550781c-7.757812-1.574219-15.78125-2.414063-24-2.414063-8.167969 0-16.160156.910156-24 2.503906v-35.640624c13.761719-3.578126 24-15.992188 24-30.863282 0-17.648437-14.351562-32-32-32s-32 14.351563-32 32c0 14.871094 10.242188 27.285156 24 30.863282zm56-78.863282c0-8.824218 7.175781-16 16-16s16 7.175782 16 16c0 8.820313-7.175781 16-16 16s-16-7.179687-16-16zm-48 32c8.824219 0 16 7.175782 16 16 0 8.820313-7.175781 16-16 16s-16-7.179687-16-16c0-8.824218 7.175781-16 16-16zm0 0"/><path d="m352 312.003906c-14.863281 0-27.285156 10.230469-30.863281 24h-81.136719v-16h-16v56c0 57.34375-46.65625 104-104 104-15.597656 0-30.589844-3.371094-44.566406-10.011718l-6.863282 14.457031c16.125 7.664062 33.429688 11.554687 51.429688 11.554687 52.128906 0 96.472656-33.464844 113-80h40.136719c3.578125 13.765625 16 24 30.863281 24 17.648438 0 32-14.355468 32-32 0-17.648437-14.351562-32-32-32-14.863281 0-27.285156 10.230469-30.863281 24h-35.550781c1.574218-7.761718 2.414062-15.785156 2.414062-24v-24h81.136719c3.578125 13.765625 16 24 30.863281 24 17.648438 0 32-14.355468 32-32 0-17.648437-14.351562-32-32-32zm-48 80c8.824219 0 16 7.175782 16 16 0 8.820313-7.175781 16-16 16s-16-7.179687-16-16c0-8.824218 7.175781-16 16-16zm48-32c-8.824219 0-16-7.179687-16-16 0-8.824218 7.175781-16 16-16s16 7.175782 16 16c0 8.820313-7.175781 16-16 16zm0 0"/></svg>