<?xml version="1.0" encoding="iso-8859-1"?>
<!-- Generator: Adobe Illustrator 19.0.0, SVG Export Plug-In . SVG Version: 6.00 Build 0)  -->
<svg xmlns="http://www.w3.org/2000/svg" xmlns:xlink="http://www.w3.org/1999/xlink" version="1.1" id="Layer_1" x="0px" y="0px" viewBox="0 0 511.977 511.977" style="enable-background:new 0 0 511.977 511.977;" xml:space="preserve" width="512" height="512">
<g>
	<path d="M457.317,81.08h-67.701c-0.324,0-0.641,0.028-0.96,0.048c-0.732-0.784-1.465-1.568-2.226-2.329   c-15.95-15.95-37.128-25.586-59.632-27.135l-69.757-4.798c-14.427-0.992-28.569,4.303-38.796,14.53L14.625,265.016   c-19.5,19.5-19.5,51.229,0,70.728l114.86,114.86v0c9.75,9.75,22.557,14.624,35.364,14.624c12.807,0,25.614-4.875,35.364-14.625   l203.619-203.619c10.227-10.227,15.523-24.368,14.531-38.796l-1.224-17.791h40.179c30.139,0,54.659-24.52,54.659-54.659   S487.457,81.08,457.317,81.08z M345.402,160.398c-2.528-9.428-7.467-18.338-14.851-25.721   c-10.877-10.877-25.339-16.868-40.722-16.868s-29.844,5.99-40.721,16.867c-10.877,10.877-16.868,25.339-16.868,40.722   s5.99,29.845,16.868,40.722c11.228,11.229,25.972,16.84,40.721,16.84c14.746,0,29.496-5.615,40.722-16.84c0,0,0,0,0,0   c7.384-7.384,12.323-16.294,14.85-25.722h41.665l1.365,19.85c0.397,5.773-1.722,11.432-5.814,15.524L179,429.391   c-7.802,7.802-20.499,7.803-28.302,0v0l-114.86-114.86c-3.78-3.78-5.861-8.806-5.861-14.151c0-5.346,2.082-10.371,5.861-14.151   L239.457,82.61c4.093-4.092,9.754-6.209,15.524-5.813l69.758,4.797c31.415,2.161,56.735,27.481,58.896,58.896l1.369,19.909H345.402   z M289.83,190.398h23.153c-1.035,1.596-2.247,3.11-3.645,4.508c-10.757,10.757-28.26,10.756-39.017,0   c-5.211-5.211-8.081-12.14-8.081-19.509s2.87-14.297,8.081-19.508c5.21-5.211,12.139-8.081,19.508-8.081s14.297,2.87,19.509,8.081   c1.398,1.398,2.61,2.912,3.645,4.508H289.83c-8.284,0-15,6.716-15,15S281.546,190.398,289.83,190.398z M457.317,160.398h-42.242   l-1.511-21.967c-0.65-9.449-2.744-18.658-6.115-27.351h49.868c13.597,0,24.659,11.062,24.659,24.659   S470.915,160.398,457.317,160.398z"/>
	<path d="M195.821,192.425c-5.857-5.858-15.355-5.858-21.213,0l-95.207,95.207c-5.858,5.858-5.858,15.355,0,21.213   c2.929,2.929,6.768,4.394,10.606,4.394s7.678-1.464,10.606-4.394l95.207-95.207C201.679,207.78,201.679,198.282,195.821,192.425z"/>
	<path d="M184.512,280.717c-5.857-5.858-15.355-5.858-21.213,0l-45.406,45.406c-5.858,5.858-5.858,15.355,0,21.213   c2.929,2.929,6.768,4.394,10.606,4.394s7.678-1.464,10.606-4.394l45.406-45.406C190.37,296.072,190.37,286.575,184.512,280.717z"/>
	<path d="M156.385,364.614c-5.858,5.858-5.858,15.355,0,21.213c2.929,2.929,6.768,4.394,10.606,4.394s7.678-1.464,10.606-4.394   l69.049-69.049c5.858-5.858,5.858-15.355,0-21.213c-5.857-5.858-15.355-5.858-21.213,0L156.385,364.614z"/>
</g>















</svg>
